<svg width="18" height="18" viewBox="0 0 18 18" fill="none" xmlns="http://www.w3.org/2000/svg">
<path d="M11.5438 13.9231V14.5385C11.5438 15.1913 11.2758 15.8174 10.7989 16.279C10.3219 16.7407 9.675 17 9.00047 17C8.32595 17 7.67905 16.7407 7.20209 16.279C6.72513 15.8174 6.45718 15.1913 6.45718 14.5385V13.9231M15.8229 12.6704C14.8024 11.4615 14.0819 10.8462 14.0819 7.51346C14.0819 4.46154 12.4717 3.37423 11.1464 2.84615C10.9703 2.77615 10.8046 2.61538 10.751 2.44038C10.5185 1.67462 9.86679 1 9.00047 1C8.13416 1 7.48205 1.675 7.25196 2.44115C7.19831 2.61808 7.0326 2.77615 6.85655 2.84615C5.52967 3.375 3.92103 4.45846 3.92103 7.51346C3.91904 10.8462 3.19858 11.4615 2.17808 12.6704C1.75525 13.1712 2.12562 13.9231 2.86517 13.9231H15.1398C15.8753 13.9231 16.2433 13.1688 15.8229 12.6704Z" stroke="#666666" stroke-linecap="round" stroke-linejoin="round"/>
</svg>
