<svg width="166" height="170" viewBox="0 0 166 170" fill="none" xmlns="http://www.w3.org/2000/svg">
<path d="M0 4C0 1.79086 1.79086 0 4 0H162C164.209 0 166 1.79086 166 4V151.833C166 154.042 164.209 155.833 162 155.833H4C1.79086 155.833 0 154.042 0 151.833V4Z" fill="#8CD193"/>
<path d="M20.75 17.7955C20.75 15.7368 22.3127 14.0143 24.3617 13.8144L161.612 0.428003C163.963 0.198661 166 2.04652 166 4.40911V152.204C166 154.263 164.437 155.986 162.388 156.186L25.1383 169.572C22.7869 169.801 20.75 167.953 20.75 165.591V17.7955Z" fill="#ACE0B1"/>
<path d="M21.75 17.7955C21.75 16.2515 22.922 14.9596 24.4588 14.8097L161.709 1.42328C163.472 1.25127 165 2.63717 165 4.40911V152.204C165 153.749 163.828 155.04 162.291 155.19L25.0412 168.577C23.2776 168.749 21.75 167.363 21.75 165.591V17.7955Z" stroke="#8CD193" stroke-opacity="0.8" stroke-width="2"/>
</svg>
