<svg width="40" height="41" viewBox="0 0 40 41" fill="none" xmlns="http://www.w3.org/2000/svg">
<g filter="url(#filter0_d_368_11238)">
<path fill-rule="evenodd" clip-rule="evenodd" d="M7 8C7 7.44772 7.44772 7 8 7H32C32.5523 7 33 7.44772 33 8V32C33 32.5523 32.5523 33 32 33H8C7.44772 33 7 32.5523 7 32V8ZM9 23.8591V31H31V28.4109L25.25 22.5948L22.5861 25.2893C22.3983 25.4793 22.1422 25.5862 21.875 25.5862C21.6078 25.5862 21.3517 25.4793 21.1639 25.2893L14.375 18.4224L9 23.8591ZM9 21.0144L13.6639 16.2969C13.8517 16.1069 14.1078 16 14.375 16C14.6422 16 14.8983 16.1069 15.0861 16.2969L21.875 23.1638L24.5389 20.4694C24.7267 20.2793 24.9828 20.1724 25.25 20.1724C25.5172 20.1724 25.7733 20.2793 25.9611 20.4694L31 25.5661V9H9V21.0144ZM24 15.5C24 14.6716 24.6716 14 25.5 14C26.3284 14 27 14.6716 27 15.5C27 16.3284 26.3284 17 25.5 17C24.6716 17 24 16.3284 24 15.5Z" fill="#BCB5A9"/>
</g>
<defs>
<filter id="filter0_d_368_11238" x="-4" y="0" width="48" height="48" filterUnits="userSpaceOnUse" color-interpolation-filters="sRGB">
<feFlood flood-opacity="0" result="BackgroundImageFix"/>
<feColorMatrix in="SourceAlpha" type="matrix" values="0 0 0 0 0 0 0 0 0 0 0 0 0 0 0 0 0 0 127 0" result="hardAlpha"/>
<feOffset dy="4"/>
<feGaussianBlur stdDeviation="2"/>
<feComposite in2="hardAlpha" operator="out"/>
<feColorMatrix type="matrix" values="0 0 0 0 0 0 0 0 0 0 0 0 0 0 0 0 0 0 0.25 0"/>
<feBlend mode="normal" in2="BackgroundImageFix" result="effect1_dropShadow_368_11238"/>
<feBlend mode="normal" in="SourceGraphic" in2="effect1_dropShadow_368_11238" result="shape"/>
</filter>
</defs>
</svg>
