<svg width="36" height="26" viewBox="0 0 36 26" fill="none" xmlns="http://www.w3.org/2000/svg">
<path d="M8 11.3125L18 3L28 11.75V24H8V11.3125Z" stroke="black" stroke-linejoin="round"/>
<path d="M18.1133 21C18.1133 21 19.1699 18.3862 19.8061 17.7327C20.4423 17.0793 23 15.8857 23 15.8857C23 15.8857 20.3856 14.8292 19.732 14.1932C19.0784 13.5572 17.8867 11 17.8867 11C17.8867 11 16.8301 13.6138 16.1917 14.2782C15.5534 14.9425 13 16.1253 13 16.1253C13 16.1253 15.6144 17.1795 16.268 17.8177C16.9216 18.4559 18.1133 21 18.1133 21Z" fill="white" stroke="black" stroke-linejoin="round"/>
</svg>
