<svg width="12" height="15" viewBox="0 0 12 15" fill="none" xmlns="http://www.w3.org/2000/svg">
<path d="M9.13 11L7.926 7.906H3.964L2.774 11H1.5L5.406 0.962H6.54L10.432 11H9.13ZM6.428 3.762C6.4 3.68733 6.35333 3.552 6.288 3.356C6.22267 3.16 6.15733 2.95933 6.092 2.754C6.036 2.53933 5.98933 2.376 5.952 2.264C5.90533 2.45067 5.854 2.642 5.798 2.838C5.75133 3.02467 5.7 3.19733 5.644 3.356C5.59733 3.51467 5.55533 3.65 5.518 3.762L4.384 6.786H7.548L6.428 3.762Z" fill="#666666"/>
<rect y="14" width="12" height="1" fill="#666666"/>
</svg>
