<svg width="36" height="26" viewBox="0 0 36 26" fill="none" xmlns="http://www.w3.org/2000/svg">
<mask id="path-1-inside-1_714_17035" fill="white">
<path fill-rule="evenodd" clip-rule="evenodd" d="M25.7104 14C25.7104 14.3438 25.689 14.6667 25.6462 14.9792L27.7987 16.625C28.0021 16.7708 28.0557 17.0312 27.9272 17.2604L25.8711 20.7188C25.7426 20.9479 25.4748 21.0312 25.2392 20.9479L22.6798 19.9479C22.1551 20.3437 21.5768 20.6771 20.945 20.9271L20.5594 23.5729C20.5273 23.8229 20.3131 24 20.0561 24H15.9439C15.6869 24 15.4834 23.8229 15.4299 23.5729L15.0443 20.9271C14.4125 20.6771 13.8449 20.3437 13.3095 19.9479L10.7501 20.9479C10.5145 21.0208 10.2467 20.9479 10.1182 20.7188L8.06211 17.2604C7.94431 17.0521 7.99786 16.7708 8.19062 16.625L10.3645 14.9792C10.311 14.6667 10.2896 14.3229 10.2896 14C10.2896 13.6771 10.3324 13.3333 10.3859 13.0208L8.21204 11.375C7.99786 11.2292 7.95502 10.9583 8.08353 10.7396L10.1289 7.28125C10.2574 7.05208 10.5252 6.96875 10.7608 7.05208L13.3202 8.05208C13.8449 7.66667 14.4232 7.32292 15.055 7.07292L15.4406 4.42708C15.4834 4.17708 15.6869 4 15.9439 4H20.0561C20.3131 4 20.5273 4.17708 20.5701 4.42708L20.9557 7.07292C21.5875 7.32292 22.1551 7.65625 22.6905 8.05208L25.2499 7.05208C25.4855 6.97917 25.7533 7.05208 25.8818 7.28125L27.9379 10.7396C28.0557 10.9479 28.0021 11.2292 27.8094 11.375L25.6355 13.0208C25.689 13.3333 25.7104 13.6667 25.7104 14Z"/>
</mask>
<path fill-rule="evenodd" clip-rule="evenodd" d="M25.7104 14C25.7104 14.3438 25.689 14.6667 25.6462 14.9792L27.7987 16.625C28.0021 16.7708 28.0557 17.0312 27.9272 17.2604L25.8711 20.7188C25.7426 20.9479 25.4748 21.0312 25.2392 20.9479L22.6798 19.9479C22.1551 20.3437 21.5768 20.6771 20.945 20.9271L20.5594 23.5729C20.5273 23.8229 20.3131 24 20.0561 24H15.9439C15.6869 24 15.4834 23.8229 15.4299 23.5729L15.0443 20.9271C14.4125 20.6771 13.8449 20.3437 13.3095 19.9479L10.7501 20.9479C10.5145 21.0208 10.2467 20.9479 10.1182 20.7188L8.06211 17.2604C7.94431 17.0521 7.99786 16.7708 8.19062 16.625L10.3645 14.9792C10.311 14.6667 10.2896 14.3229 10.2896 14C10.2896 13.6771 10.3324 13.3333 10.3859 13.0208L8.21204 11.375C7.99786 11.2292 7.95502 10.9583 8.08353 10.7396L10.1289 7.28125C10.2574 7.05208 10.5252 6.96875 10.7608 7.05208L13.3202 8.05208C13.8449 7.66667 14.4232 7.32292 15.055 7.07292L15.4406 4.42708C15.4834 4.17708 15.6869 4 15.9439 4H20.0561C20.3131 4 20.5273 4.17708 20.5701 4.42708L20.9557 7.07292C21.5875 7.32292 22.1551 7.65625 22.6905 8.05208L25.2499 7.05208C25.4855 6.97917 25.7533 7.05208 25.8818 7.28125L27.9379 10.7396C28.0557 10.9479 28.0021 11.2292 27.8094 11.375L25.6355 13.0208C25.689 13.3333 25.7104 13.6667 25.7104 14Z" fill="#4482EB"/>
<path d="M25.6462 14.9792L24.6554 14.8434C24.6066 15.1998 24.753 15.555 25.0388 15.7736L25.6462 14.9792ZM27.7987 16.625L27.1913 17.4194C27.1995 17.4257 27.2077 17.4318 27.2161 17.4378L27.7987 16.625ZM27.9272 17.2604L28.7867 17.7715C28.791 17.7642 28.7953 17.7569 28.7994 17.7495L27.9272 17.2604ZM25.8711 20.7188L25.0115 20.2077C25.0072 20.215 25.003 20.2223 24.9988 20.2296L25.8711 20.7188ZM25.2392 20.9479L24.8753 21.8793C24.8854 21.8833 24.8956 21.8871 24.9058 21.8907L25.2392 20.9479ZM22.6798 19.9479L23.0437 19.0165C22.7204 18.8902 22.3547 18.9405 22.0776 19.1496L22.6798 19.9479ZM20.945 20.9271L20.577 19.9972C20.2441 20.129 20.007 20.4286 19.9554 20.7829L20.945 20.9271ZM20.5594 23.5729L19.5699 23.4287C19.5691 23.4343 19.5683 23.4399 19.5676 23.4455L20.5594 23.5729ZM15.4299 23.5729L14.4403 23.7171C14.4435 23.739 14.4474 23.7607 14.452 23.7823L15.4299 23.5729ZM15.0443 20.9271L16.0339 20.7829C15.9823 20.4286 15.7452 20.129 15.4123 19.9972L15.0443 20.9271ZM13.3095 19.9479L13.9039 19.1438C13.6276 18.9395 13.2657 18.8914 12.9456 19.0165L13.3095 19.9479ZM10.7501 20.9479L11.0457 21.9032C11.0688 21.8961 11.0915 21.8881 11.114 21.8793L10.7501 20.9479ZM10.1182 20.7188L10.9905 20.2296C10.9863 20.2223 10.9821 20.215 10.9778 20.2077L10.1182 20.7188ZM8.06211 17.2604L7.19163 17.7526C7.1952 17.7589 7.19884 17.7652 7.20256 17.7715L8.06211 17.2604ZM8.19062 16.625L8.79396 17.4225L8.79423 17.4223L8.19062 16.625ZM10.3645 14.9792L10.9681 15.7764C11.2659 15.551 11.4132 15.1784 11.3502 14.8103L10.3645 14.9792ZM10.3859 13.0208L11.3716 13.1897C11.4347 12.8216 11.2873 12.449 10.9896 12.2236L10.3859 13.0208ZM8.21204 11.375L8.81565 10.5777C8.8023 10.5676 8.78869 10.5578 8.77485 10.5484L8.21204 11.375ZM8.08353 10.7396L7.2228 10.2305L7.2213 10.2331L8.08353 10.7396ZM10.1289 7.28125L10.9897 7.79032C10.9936 7.78371 10.9974 7.77706 11.0012 7.77036L10.1289 7.28125ZM10.7608 7.05208L11.1247 6.12065C11.1146 6.11671 11.1044 6.11293 11.0942 6.10932L10.7608 7.05208ZM13.3202 8.05208L12.9563 8.98351C13.2754 9.10818 13.6361 9.06084 13.9122 8.85804L13.3202 8.05208ZM15.055 7.07292L15.423 8.00277C15.7559 7.87105 15.993 7.57139 16.0446 7.2171L15.055 7.07292ZM15.4406 4.42708L14.4549 4.2582C14.4535 4.26642 14.4522 4.27465 14.451 4.2829L15.4406 4.42708ZM20.5701 4.42708L21.5597 4.2829C21.5585 4.27465 21.5572 4.26642 21.5558 4.2582L20.5701 4.42708ZM20.9557 7.07292L19.9661 7.2171C20.0177 7.57139 20.2548 7.87105 20.5877 8.00277L20.9557 7.07292ZM22.6905 8.05208L22.0961 8.85621C22.3724 9.06051 22.7343 9.10858 23.0544 8.98351L22.6905 8.05208ZM25.2499 7.05208L24.9543 6.09679C24.9313 6.10392 24.9085 6.11188 24.886 6.12065L25.2499 7.05208ZM25.8818 7.28125L25.0096 7.77036C25.0137 7.77772 25.0179 7.78503 25.0222 7.79229L25.8818 7.28125ZM27.9379 10.7396L28.8084 10.2474C28.8048 10.2411 28.8012 10.2348 28.7974 10.2285L27.9379 10.7396ZM27.8094 11.375L27.206 10.5775L27.2058 10.5777L27.8094 11.375ZM25.6355 13.0208L25.0319 12.2236C24.7341 12.449 24.5868 12.8216 24.6498 13.1897L25.6355 13.0208ZM26.6369 15.115C26.6863 14.7543 26.7104 14.3859 26.7104 14H24.7104C24.7104 14.3016 24.6917 14.579 24.6554 14.8434L26.6369 15.115ZM28.4061 15.8306L26.2536 14.1848L25.0388 15.7736L27.1913 17.4194L28.4061 15.8306ZM28.7994 17.7495C29.1608 17.105 29.0253 16.2739 28.3812 15.8122L27.2161 17.4378C27.1163 17.3662 27.0358 17.2503 27.0074 17.1106C26.9795 16.9729 27.0095 16.8523 27.055 16.7713L28.7994 17.7495ZM26.7306 21.2298L28.7867 17.7715L27.0676 16.7494L25.0115 20.2077L26.7306 21.2298ZM24.9058 21.8907C25.5575 22.1212 26.3554 21.8997 26.7433 21.2079L24.9988 20.2296C25.1298 19.9962 25.3921 19.9413 25.5727 20.0052L24.9058 21.8907ZM22.3159 20.8793L24.8753 21.8793L25.6032 20.0165L23.0437 19.0165L22.3159 20.8793ZM21.3129 21.8569C22.034 21.5716 22.6905 21.1925 23.282 20.7462L22.0776 19.1496C21.6197 19.495 21.1196 19.7826 20.577 19.9972L21.3129 21.8569ZM21.549 23.7171L21.9345 21.0713L19.9554 20.7829L19.5699 23.4287L21.549 23.7171ZM20.0561 25C20.7772 25 21.4502 24.4869 21.5513 23.7004L19.5676 23.4455C19.6044 23.1589 19.849 23 20.0561 23V25ZM15.9439 25H20.0561V23H15.9439V25ZM14.452 23.7823C14.5971 24.4596 15.1815 25 15.9439 25V23C16.0522 23 16.1649 23.0397 16.2547 23.1153C16.342 23.1888 16.39 23.2808 16.4077 23.3635L14.452 23.7823ZM14.0548 21.0713L14.4403 23.7171L16.4194 23.4287L16.0339 20.7829L14.0548 21.0713ZM12.715 20.752C13.3073 21.1899 13.9503 21.5696 14.6764 21.8569L15.4123 19.9972C14.8747 19.7845 14.3825 19.4976 13.9039 19.1438L12.715 20.752ZM11.114 21.8793L13.6734 20.8793L12.9456 19.0165L10.3861 20.0165L11.114 21.8793ZM9.246 21.2079C9.65034 21.9289 10.4541 22.0863 11.0457 21.9032L10.4544 19.9926C10.5245 19.9709 10.6139 19.9656 10.7123 19.9986C10.8194 20.0346 10.9255 20.1139 10.9905 20.2296L9.246 21.2079ZM7.20256 17.7715L9.25867 21.2298L10.9778 20.2077L8.92167 16.7494L7.20256 17.7715ZM7.58728 15.8275C6.98344 16.2844 6.83442 17.1209 7.19163 17.7526L8.9326 16.7682C9.00051 16.8883 9.01095 17.0124 8.99075 17.1141C8.97034 17.2168 8.91095 17.334 8.79396 17.4225L7.58728 15.8275ZM9.76092 14.1819L7.58701 15.8277L8.79423 17.4223L10.9681 15.7764L9.76092 14.1819ZM9.28957 14C9.28957 14.3621 9.31325 14.7649 9.3789 15.148L11.3502 14.8103C11.3087 14.5684 11.2896 14.2837 11.2896 14H9.28957ZM9.40031 12.852C9.34226 13.1908 9.28957 13.5969 9.28957 14H11.2896C11.2896 13.7573 11.3225 13.4759 11.3716 13.1897L9.40031 12.852ZM7.60843 12.1723L9.78234 13.8181L10.9896 12.2236L8.81565 10.5777L7.60843 12.1723ZM7.2213 10.2331C6.85822 10.8511 6.94943 11.7251 7.64922 12.2016L8.77485 10.5484C8.89023 10.627 8.97465 10.7549 9.00187 10.8989C9.02778 11.0359 8.99739 11.1582 8.94576 11.2461L7.2213 10.2331ZM9.26821 6.77218L7.2228 10.2305L8.94426 11.2487L10.9897 7.79032L9.26821 6.77218ZM11.0942 6.10932C10.4425 5.87878 9.64464 6.10035 9.25671 6.79214L11.0012 7.77036C10.8702 8.00382 10.6079 8.05872 10.4273 7.99485L11.0942 6.10932ZM13.6841 7.12065L11.1247 6.12065L10.3968 7.98351L12.9563 8.98351L13.6841 7.12065ZM14.6871 6.14306C13.9586 6.4313 13.3056 6.82206 12.7282 7.24612L13.9122 8.85804C14.3843 8.51128 14.8878 8.21453 15.423 8.00277L14.6871 6.14306ZM14.451 4.2829L14.0655 6.92873L16.0446 7.2171L16.4301 4.57127L14.451 4.2829ZM15.9439 3C15.1881 3 14.578 3.53968 14.4549 4.2582L16.4262 4.59596C16.4092 4.69533 16.3554 4.7998 16.2617 4.87993C16.1668 4.961 16.0509 5 15.9439 5V3ZM20.0561 3H15.9439V5H20.0561V3ZM21.5558 4.2582C21.4283 3.51442 20.7863 3 20.0561 3V5C19.84 5 19.6263 4.83974 19.5845 4.59597L21.5558 4.2582ZM21.9452 6.92873L21.5597 4.2829L19.5806 4.57127L19.9661 7.2171L21.9452 6.92873ZM23.285 7.24796C22.6927 6.8101 22.0497 6.43037 21.3236 6.14306L20.5877 8.00277C21.1253 8.21546 21.6175 8.5024 22.0961 8.85621L23.285 7.24796ZM24.886 6.12065L22.3266 7.12065L23.0544 8.98351L25.6139 7.98351L24.886 6.12065ZM26.754 6.79214C26.3497 6.07109 25.5459 5.91369 24.9543 6.09679L25.5456 8.00738C25.4755 8.02906 25.3861 8.03442 25.2877 8.00136C25.1806 7.96541 25.0745 7.88612 25.0096 7.77036L26.754 6.79214ZM28.7974 10.2285L26.7413 6.77021L25.0222 7.79229L27.0783 11.2506L28.7974 10.2285ZM28.4127 12.1725C29.0166 11.7157 29.1656 10.8791 28.8084 10.2474L27.0674 11.2318C26.9995 11.1117 26.9891 10.9876 27.0093 10.8859C27.0297 10.7832 27.089 10.666 27.206 10.5775L28.4127 12.1725ZM26.2391 13.8181L28.413 12.1723L27.2058 10.5777L25.0319 12.2236L26.2391 13.8181ZM26.7104 14C26.7104 13.6266 26.6866 13.2344 26.6211 12.852L24.6498 13.1897C24.6914 13.4322 24.7104 13.7068 24.7104 14H26.7104Z" fill="#4482EB" mask="url(#path-1-inside-1_714_17035)"/>
<path d="M18.0906 18C18.0906 18 18.9359 15.909 19.4449 15.3862C19.9538 14.8634 22 13.9085 22 13.9085C22 13.9085 19.9085 13.0634 19.3856 12.5546C18.8627 12.0457 17.9094 10 17.9094 10C17.9094 10 17.0641 12.0911 16.5534 12.6225C16.0427 13.154 14 14.1002 14 14.1002C14 14.1002 16.0915 14.9436 16.6144 15.4542C17.1373 15.9647 18.0906 18 18.0906 18Z" fill="white"/>
<path d="M8.68433 3.19016L9.94091 5.38425C9.98777 5.4609 10.0076 5.55104 9.99736 5.64031C9.98708 5.72958 9.94724 5.81285 9.88419 5.87681C9.82114 5.94077 9.73852 5.98175 9.64949 5.99322C9.56046 6.00469 9.47016 5.98598 9.39298 5.94008L7.20128 4.68946C7.14045 4.65342 7.07105 4.63441 7.00036 4.63441C6.92968 4.63441 6.86029 4.65342 6.79946 4.68946L4.60776 5.94741C4.53126 5.99096 4.4426 6.00817 4.35538 5.99639C4.26817 5.9846 4.18722 5.94449 4.12499 5.88219C4.06275 5.81989 4.02267 5.73885 4.0109 5.65154C3.99913 5.56422 4.01633 5.47547 4.05984 5.39888L5.3091 3.20479C5.3451 3.14389 5.3641 3.07442 5.3641 3.00365C5.3641 2.93289 5.3451 2.86343 5.3091 2.80253L4.05253 0.608438C4.00901 0.531854 3.99184 0.443084 4.00361 0.35577C4.01538 0.268456 4.05544 0.187431 4.11767 0.125131C4.1799 0.0628318 4.26085 0.0227043 4.34807 0.0109226C4.43529 -0.000859027 4.52395 0.0163544 4.60045 0.0599139L6.79215 1.31054C6.85409 1.34321 6.92306 1.36028 6.99307 1.36028C7.06308 1.36028 7.13203 1.34321 7.19397 1.31054L9.38567 0.0526043C9.46217 0.00904474 9.55083 -0.00816866 9.63805 0.00361298C9.72527 0.0153946 9.80621 0.055511 9.86845 0.117811C9.93068 0.18011 9.97076 0.261147 9.98253 0.34846C9.9943 0.435774 9.9771 0.524544 9.93359 0.601128L8.68433 2.79522C8.64971 2.85526 8.63147 2.92336 8.63147 2.99268C8.63147 3.06201 8.64971 3.13012 8.68433 3.19016Z" fill="white"/>
<path d="M3.27413 10.4403L2.86453 11.9478C2.85152 12.0018 2.82082 12.0499 2.77733 12.0844C2.73384 12.1189 2.68005 12.1379 2.62456 12.1383C2.56907 12.1387 2.51507 12.1205 2.47117 12.0866C2.42726 12.0527 2.39598 12.0051 2.38231 11.9513L1.97117 10.4474C1.96034 10.4051 1.93832 10.3664 1.90744 10.3356C1.87656 10.3047 1.83794 10.2827 1.79562 10.2718L0.288504 9.86389C0.236051 9.84949 0.1898 9.81827 0.156843 9.77502C0.123885 9.73177 0.106046 9.67888 0.106076 9.62447C0.106106 9.57007 0.123997 9.51715 0.157002 9.47386C0.190007 9.43057 0.236297 9.39931 0.288766 9.38486L1.79313 8.97207C1.83547 8.96119 1.87412 8.93914 1.90503 8.90823C1.93595 8.87731 1.95799 8.83866 1.96887 8.79633L2.37847 7.28877C2.39291 7.2363 2.4242 7.19001 2.46748 7.15701C2.51077 7.12401 2.56367 7.10611 2.61808 7.10608C2.67249 7.10605 2.72538 7.12388 2.76863 7.15684C2.81189 7.1898 2.8431 7.23605 2.85749 7.28851L3.26864 8.79242C3.28142 8.83376 3.3041 8.87135 3.33469 8.90193C3.36527 8.93252 3.40286 8.95519 3.44419 8.96798L4.9513 9.37592C5.00375 9.39032 5.05001 9.42153 5.08296 9.46478C5.11592 9.50804 5.13376 9.56093 5.13373 9.61533C5.1337 9.66974 5.11581 9.72266 5.0828 9.76594C5.0498 9.80923 5.0035 9.8405 4.95104 9.85495L3.44667 10.2677C3.40531 10.2788 3.36759 10.3006 3.33731 10.3309C3.30702 10.3612 3.28523 10.3989 3.27413 10.4403Z" fill="white"/>
</svg>
