<svg width="36" height="26" viewBox="0 0 36 26" fill="none" xmlns="http://www.w3.org/2000/svg">
<path d="M17.1836 4V3.5H17.1836L17.1836 4ZM13.9183 6.64698H14.4183V6.14698H13.9183V6.64698ZM13.9183 7.97052L13.9926 8.46498L14.4183 8.40106V7.97052H13.9183ZM22.0817 7.97052H21.5817V8.40106L22.0074 8.46498L22.0817 7.97052ZM22.0817 6.64698V6.14698H21.5817V6.64698H22.0817ZM18.8164 4V3.5V4ZM12.6226 5.4706C12.6226 5.21257 12.6609 5.09403 12.7081 5.02398C12.7509 4.96047 12.8511 4.86346 13.1476 4.77188C13.7756 4.57794 14.959 4.5 17.1836 4.5L17.1836 3.5C15.0002 3.5 13.6531 3.56915 12.8525 3.81641C12.4348 3.94543 12.0963 4.14254 11.8789 4.46506C11.6659 4.78103 11.6226 5.14042 11.6226 5.4706H12.6226ZM13.9183 6.14698C13.3336 6.14698 13.006 6.01465 12.8362 5.88361C12.678 5.76146 12.6226 5.61602 12.6226 5.4706H11.6226C11.6226 5.91341 11.812 6.35616 12.2251 6.67514C12.6267 6.98524 13.197 7.14698 13.9183 7.14698V6.14698ZM14.4183 7.97052V6.64698H13.4183V7.97052H14.4183ZM10.5 12.6764C10.5 11.1789 11.087 10.1833 11.8052 9.5321C12.5387 8.86703 13.4231 8.55047 13.9926 8.46498L13.8441 7.47606C13.1075 7.58665 12.0327 7.97597 11.1335 8.7913C10.2191 9.62047 9.5 10.8798 9.5 12.6764H10.5ZM10.5 20.9118V12.6764H9.5V20.9118H10.5ZM13.9183 23.5C12.7495 23.5 11.8933 23.2223 11.3401 22.7817C10.8011 22.3525 10.5 21.7305 10.5 20.9118H9.5C9.5 22.0048 9.91722 22.9269 10.7171 23.5639C11.5026 24.1895 12.6056 24.5 13.9183 24.5V23.5ZM17.1836 23.5H13.9183V24.5H17.1836V23.5ZM17.1836 24.5H18.8164V23.5H17.1836V24.5ZM18.8164 24.5H22.0817V23.5H18.8164V24.5ZM22.0817 24.5C23.3944 24.5 24.4974 24.1895 25.2829 23.5639C26.0828 22.9269 26.5 22.0048 26.5 20.9118H25.5C25.5 21.7305 25.1989 22.3525 24.6599 22.7817C24.1067 23.2223 23.2505 23.5 22.0817 23.5V24.5ZM26.5 20.9118V12.6764H25.5V20.9118H26.5ZM26.5 12.6764C26.5 10.8798 25.7809 9.62047 24.8665 8.7913C23.9673 7.97597 22.8925 7.58665 22.1559 7.47606L22.0074 8.46498C22.5769 8.55047 23.4613 8.86703 24.1948 9.5321C24.913 10.1833 25.5 11.1789 25.5 12.6764H26.5ZM22.5817 7.97052V6.64698H21.5817V7.97052H22.5817ZM22.0817 7.14698C22.803 7.14698 23.3733 6.98524 23.7749 6.67514C24.188 6.35616 24.3774 5.91341 24.3774 5.4706H23.3774C23.3774 5.61602 23.322 5.76146 23.1638 5.88361C22.994 6.01465 22.6664 6.14698 22.0817 6.14698V7.14698ZM24.3774 5.4706C24.3774 5.14042 24.3341 4.78103 24.1211 4.46506C23.9037 4.14254 23.5652 3.94543 23.1475 3.81641C22.3469 3.56915 20.9998 3.5 18.8164 3.5V4.5C21.041 4.5 22.2244 4.57794 22.8524 4.77188C23.1489 4.86346 23.2491 4.96047 23.2919 5.02398C23.3391 5.09403 23.3774 5.21257 23.3774 5.4706H24.3774ZM18.8164 3.5C18.8164 3.5 18.8164 3.5 18.8164 3.5H18.8164C18.8164 3.5 18.8164 3.5 18.8164 3.5C18.8164 3.5 18.8164 3.5 18.8164 3.5H18.8164C18.8164 3.5 18.8164 3.5 18.8164 3.5C18.8164 3.5 18.8164 3.5 18.8164 3.5C18.8164 3.5 18.8164 3.5 18.8164 3.5H18.8164C18.8164 3.5 18.8164 3.5 18.8164 3.5C18.8164 3.5 18.8164 3.5 18.8164 3.5H18.8163H18.8163C18.8163 3.5 18.8163 3.5 18.8163 3.5C18.8163 3.5 18.8163 3.5 18.8163 3.5H18.8163H18.8163C18.8163 3.5 18.8163 3.5 18.8163 3.5C18.8163 3.5 18.8163 3.5 18.8163 3.5H18.8163H18.8163C18.8163 3.5 18.8163 3.5 18.8163 3.5C18.8163 3.5 18.8163 3.5 18.8163 3.5C18.8163 3.5 18.8163 3.5 18.8163 3.5H18.8163C18.8163 3.5 18.8163 3.5 18.8163 3.5C18.8163 3.5 18.8163 3.5 18.8163 3.5C18.8163 3.5 18.8163 3.5 18.8163 3.5H18.8163H18.8163C18.8163 3.5 18.8163 3.5 18.8163 3.5C18.8163 3.5 18.8163 3.5 18.8163 3.5C18.8163 3.5 18.8163 3.5 18.8163 3.5H18.8163H18.8163C18.8163 3.5 18.8163 3.5 18.8163 3.5C18.8163 3.5 18.8163 3.5 18.8163 3.5C18.8163 3.5 18.8163 3.5 18.8163 3.5H18.8163C18.8163 3.5 18.8163 3.5 18.8163 3.5C18.8163 3.5 18.8163 3.5 18.8163 3.5C18.8163 3.5 18.8163 3.5 18.8163 3.5C18.8163 3.5 18.8163 3.5 18.8163 3.5H18.8163C18.8163 3.5 18.8163 3.5 18.8163 3.5C18.8163 3.5 18.8163 3.5 18.8163 3.5C18.8163 3.5 18.8163 3.5 18.8163 3.5H18.8163H18.8163C18.8163 3.5 18.8163 3.5 18.8163 3.5C18.8163 3.5 18.8163 3.5 18.8163 3.5C18.8163 3.5 18.8163 3.5 18.8163 3.5H18.8163H18.8163C18.8163 3.5 18.8163 3.5 18.8163 3.5C18.8163 3.5 18.8163 3.5 18.8163 3.5C18.8163 3.5 18.8163 3.5 18.8163 3.5H18.8163C18.8163 3.5 18.8163 3.5 18.8163 3.5C18.8163 3.5 18.8163 3.5 18.8163 3.5C18.8163 3.5 18.8163 3.5 18.8163 3.5H18.8163H18.8163C18.8163 3.5 18.8163 3.5 18.8163 3.5C18.8163 3.5 18.8163 3.5 18.8163 3.5H18.8163H18.8163C18.8163 3.5 18.8163 3.5 18.8163 3.5C18.8163 3.5 18.8163 3.5 18.8163 3.5H18.8163H18.8163C18.8163 3.5 18.8163 3.5 18.8163 3.5C18.8163 3.5 18.8163 3.5 18.8163 3.5H18.8163C18.8163 3.5 18.8163 3.5 18.8163 3.5C18.8163 3.5 18.8163 3.5 18.8163 3.5C18.8163 3.5 18.8163 3.5 18.8163 3.5H18.8163C18.8163 3.5 18.8163 3.5 18.8163 3.5C18.8163 3.5 18.8163 3.5 18.8163 3.5H18.8163C18.8163 3.5 18.8163 3.5 18.8163 3.5V4.5C18.8163 4.5 18.8163 4.5 18.8163 4.5H18.8163C18.8163 4.5 18.8163 4.5 18.8163 4.5C18.8163 4.5 18.8163 4.5 18.8163 4.5H18.8163C18.8163 4.5 18.8163 4.5 18.8163 4.5C18.8163 4.5 18.8163 4.5 18.8163 4.5C18.8163 4.5 18.8163 4.5 18.8163 4.5H18.8163C18.8163 4.5 18.8163 4.5 18.8163 4.5C18.8163 4.5 18.8163 4.5 18.8163 4.5H18.8163H18.8163C18.8163 4.5 18.8163 4.5 18.8163 4.5C18.8163 4.5 18.8163 4.5 18.8163 4.5H18.8163H18.8163C18.8163 4.5 18.8163 4.5 18.8163 4.5C18.8163 4.5 18.8163 4.5 18.8163 4.5H18.8163H18.8163C18.8163 4.5 18.8163 4.5 18.8163 4.5C18.8163 4.5 18.8163 4.5 18.8163 4.5C18.8163 4.5 18.8163 4.5 18.8163 4.5H18.8163C18.8163 4.5 18.8163 4.5 18.8163 4.5C18.8163 4.5 18.8163 4.5 18.8163 4.5C18.8163 4.5 18.8163 4.5 18.8163 4.5H18.8163H18.8163C18.8163 4.5 18.8163 4.5 18.8163 4.5C18.8163 4.5 18.8163 4.5 18.8163 4.5C18.8163 4.5 18.8163 4.5 18.8163 4.5H18.8163H18.8163C18.8163 4.5 18.8163 4.5 18.8163 4.5C18.8163 4.5 18.8163 4.5 18.8163 4.5C18.8163 4.5 18.8163 4.5 18.8163 4.5H18.8163C18.8163 4.5 18.8163 4.5 18.8163 4.5C18.8163 4.5 18.8163 4.5 18.8163 4.5C18.8163 4.5 18.8163 4.5 18.8163 4.5C18.8163 4.5 18.8163 4.5 18.8163 4.5H18.8163C18.8163 4.5 18.8163 4.5 18.8163 4.5C18.8163 4.5 18.8163 4.5 18.8163 4.5C18.8163 4.5 18.8163 4.5 18.8163 4.5H18.8163H18.8163C18.8163 4.5 18.8163 4.5 18.8163 4.5C18.8163 4.5 18.8163 4.5 18.8163 4.5C18.8163 4.5 18.8163 4.5 18.8163 4.5H18.8163H18.8163C18.8163 4.5 18.8163 4.5 18.8163 4.5C18.8163 4.5 18.8163 4.5 18.8163 4.5C18.8163 4.5 18.8163 4.5 18.8163 4.5H18.8163C18.8163 4.5 18.8163 4.5 18.8163 4.5C18.8163 4.5 18.8163 4.5 18.8163 4.5C18.8163 4.5 18.8163 4.5 18.8163 4.5H18.8163H18.8163C18.8163 4.5 18.8163 4.5 18.8163 4.5C18.8163 4.5 18.8163 4.5 18.8163 4.5H18.8163H18.8163C18.8163 4.5 18.8163 4.5 18.8163 4.5C18.8163 4.5 18.8163 4.5 18.8163 4.5H18.8163H18.8164C18.8164 4.5 18.8164 4.5 18.8164 4.5C18.8164 4.5 18.8164 4.5 18.8164 4.5H18.8164C18.8164 4.5 18.8164 4.5 18.8164 4.5C18.8164 4.5 18.8164 4.5 18.8164 4.5C18.8164 4.5 18.8164 4.5 18.8164 4.5H18.8164C18.8164 4.5 18.8164 4.5 18.8164 4.5C18.8164 4.5 18.8164 4.5 18.8164 4.5H18.8164C18.8164 4.5 18.8164 4.5 18.8164 4.5V3.5ZM18.8163 3.5H17.1837V4.5H18.8163V3.5ZM17.1837 3.5H17.1836V4.5H17.1837V3.5Z" fill="black"/>
<path d="M18.0906 20C18.0906 20 18.9359 17.909 19.4449 17.3862C19.9538 16.8634 22 15.9085 22 15.9085C22 15.9085 19.9085 15.0634 19.3856 14.5546C18.8627 14.0457 17.9094 12 17.9094 12C17.9094 12 17.0641 14.0911 16.5534 14.6225C16.0427 15.154 14 16.1002 14 16.1002C14 16.1002 16.0915 16.9436 16.6144 17.4542C17.1373 17.9647 18.0906 20 18.0906 20Z" fill="white" stroke="black" stroke-linejoin="round"/>
</svg>
