<svg width="248" height="40" viewBox="0 0 248 40" fill="none" xmlns="http://www.w3.org/2000/svg">
<path d="M242.306 0.255798C238.31 1.28616 242.047 3.85627 242.703 6.93578C242.555 9.2512 252.803 10.9878 245.173 13.28C242.121 16.2438 239.059 17.9109 243.564 20.4C246.884 26.9295 241.649 31.0857 243.443 33.8757C244.942 37.9161 241.298 40 243.564 40H4.3005C4.45773 40 5.76179 35.2418 3.19991 33.8757C-0.333081 30.611 3.91205 27.7862 4.90166 27.5199C2.26579 26.3622 5.69707 25.4707 3.50513 25.4707C7.64854 25.4707 0.998729 21.6271 4.3005 20.4C9.94219 16.8574 5.44734 16.1512 1.41492 16.9268C-1.75737 17.0773 1.2762 13.9747 2.11783 12.817C-2.5065 10.7562 4.15253 8.1861 3.18142 6.88946C3.48663 3.20794 7.93523 0.765194 4.3005 0.765194C9.35952 0.765194 7.52829 0.765194 8.43466 0.765194C8.28668 0.765194 6.58493 0.765194 12.2821 0.765194C13.6324 0.765194 229.977 -0.0336308 236.303 0.00110058C248.863 0.047409 238.828 0.140027 242.306 0.255798Z" fill="#F4FCFF" fill-opacity="0.7"/>
</svg>
