<svg width="280" height="350" viewBox="0 0 280 350" fill="none" xmlns="http://www.w3.org/2000/svg">
<rect width="280" height="350" rx="8" fill="white"/>
<path d="M101.348 5.38477H10.9629C8.80676 5.38477 7.04912 7.06768 6.98661 9.2229C6.20838 36.0518 5.64092 95.3472 6.26919 139.382C7.08405 196.494 7.10627 287.791 6.33603 337.075C6.30108 339.311 8.103 341.13 10.3393 341.13H23.4422C63.2329 338.119 129.411 341.13 149.097 344.141C165.571 346.661 233.192 338.325 268.827 338.104C271.138 338.089 272.984 336.175 272.932 333.864C272.633 320.548 273.077 293.758 273.077 265.851C273.077 226.706 271.401 183.044 273.077 128.843C274.361 87.3019 274.21 39.2202 273.212 9.2214C273.141 7.07211 271.38 5.38477 269.23 5.38477H239.15H101.348Z" stroke="#E4E4E4"/>
</svg>
