<svg width="375" height="390" viewBox="0 0 375 390" fill="none" xmlns="http://www.w3.org/2000/svg">
<path d="M136.08 6H13.3143C11.1692 6 9.41778 7.6642 9.34146 9.80797C8.28781 39.4027 7.51331 105.727 8.3616 154.916C9.45918 218.56 9.48619 320.403 8.4429 375.067C8.40012 377.309 10.2045 379.127 12.4465 379.127H31.4298C84.8801 375.78 173.776 379.127 200.22 382.473C222.569 385.301 314.989 375.825 362.46 375.758C364.785 375.755 366.645 373.812 366.577 371.489C366.152 356.846 366.76 326.788 366.76 295.466C366.76 251.962 364.509 203.439 366.76 143.204C368.492 96.8266 368.28 43.114 366.924 9.80792C366.837 7.6714 365.084 6 362.946 6H321.186H136.08Z" stroke="#FFE6A6"/>
</svg>
