<svg width="36" height="26" viewBox="0 0 36 26" fill="none" xmlns="http://www.w3.org/2000/svg">
<path fill-rule="evenodd" clip-rule="evenodd" d="M25.7104 14C25.7104 14.3438 25.689 14.6667 25.6462 14.9792L27.7987 16.625C28.0021 16.7708 28.0557 17.0312 27.9272 17.2604L25.8711 20.7188C25.7426 20.9479 25.4748 21.0312 25.2392 20.9479L22.6798 19.9479C22.1551 20.3437 21.5768 20.6771 20.945 20.9271L20.5594 23.5729C20.5273 23.8229 20.3131 24 20.0561 24H15.9439C15.6869 24 15.4834 23.8229 15.4299 23.5729L15.0443 20.9271C14.4125 20.6771 13.8449 20.3437 13.3095 19.9479L10.7501 20.9479C10.5145 21.0208 10.2467 20.9479 10.1182 20.7188L8.06211 17.2604C7.94431 17.0521 7.99786 16.7708 8.19062 16.625L10.3645 14.9792C10.311 14.6667 10.2896 14.3229 10.2896 14C10.2896 13.6771 10.3324 13.3333 10.3859 13.0208L8.21204 11.375C7.99786 11.2292 7.95502 10.9583 8.08353 10.7396L10.1289 7.28125C10.2574 7.05208 10.5252 6.96875 10.7608 7.05208L13.3202 8.05208C13.8449 7.66667 14.4232 7.32292 15.055 7.07292L15.4406 4.42708C15.4834 4.17708 15.6869 4 15.9439 4H20.0561C20.3131 4 20.5273 4.17708 20.5701 4.42708L20.9557 7.07292C21.5875 7.32292 22.1551 7.65625 22.6905 8.05208L25.2499 7.05208C25.4855 6.97917 25.7533 7.05208 25.8818 7.28125L27.9379 10.7396C28.0557 10.9479 28.0021 11.2292 27.8094 11.375L25.6355 13.0208C25.689 13.3333 25.7104 13.6667 25.7104 14Z" fill="#00C375"/>
<path d="M18.1133 19C18.1133 19 19.1699 16.3862 19.8061 15.7327C20.4423 15.0793 23 13.8857 23 13.8857C23 13.8857 20.3856 12.8292 19.732 12.1932C19.0784 11.5572 17.8867 9 17.8867 9C17.8867 9 16.8301 11.6138 16.1917 12.2782C15.5534 12.9425 13 14.1253 13 14.1253C13 14.1253 15.6144 15.1795 16.268 15.8177C16.9216 16.4559 18.1133 19 18.1133 19Z" fill="black"/>
<path d="M8.68433 3.19016L9.94091 5.38425C9.98777 5.4609 10.0076 5.55104 9.99736 5.64031C9.98708 5.72958 9.94724 5.81285 9.88419 5.87681C9.82114 5.94077 9.73852 5.98175 9.64949 5.99322C9.56046 6.00469 9.47016 5.98598 9.39298 5.94008L7.20128 4.68946C7.14045 4.65342 7.07105 4.63441 7.00036 4.63441C6.92968 4.63441 6.86029 4.65342 6.79946 4.68946L4.60776 5.94741C4.53126 5.99096 4.4426 6.00817 4.35538 5.99639C4.26817 5.9846 4.18722 5.94449 4.12499 5.88219C4.06275 5.81989 4.02267 5.73885 4.0109 5.65154C3.99913 5.56422 4.01633 5.47547 4.05984 5.39888L5.3091 3.20479C5.3451 3.14389 5.3641 3.07442 5.3641 3.00365C5.3641 2.93289 5.3451 2.86343 5.3091 2.80253L4.05253 0.608438C4.00901 0.531854 3.99184 0.443084 4.00361 0.35577C4.01538 0.268456 4.05544 0.187431 4.11767 0.125131C4.1799 0.0628318 4.26085 0.0227043 4.34807 0.0109226C4.43529 -0.000859027 4.52395 0.0163544 4.60045 0.0599139L6.79215 1.31054C6.85409 1.34321 6.92306 1.36028 6.99307 1.36028C7.06308 1.36028 7.13203 1.34321 7.19397 1.31054L9.38567 0.0526043C9.46217 0.00904474 9.55083 -0.00816866 9.63805 0.00361298C9.72527 0.0153946 9.80621 0.055511 9.86845 0.117811C9.93068 0.18011 9.97076 0.261147 9.98253 0.34846C9.9943 0.435774 9.9771 0.524544 9.93359 0.601128L8.68433 2.79522C8.64971 2.85526 8.63147 2.92336 8.63147 2.99268C8.63147 3.06201 8.64971 3.13012 8.68433 3.19016Z" fill="#606060"/>
<path d="M3.27388 10.4403L2.86429 11.9478C2.85128 12.0018 2.82058 12.0499 2.77708 12.0844C2.73359 12.1189 2.67981 12.1379 2.62432 12.1383C2.56883 12.1387 2.51483 12.1205 2.47092 12.0866C2.42701 12.0527 2.39573 12.0051 2.38207 11.9513L1.97093 10.4474C1.96009 10.4051 1.93808 10.3664 1.9072 10.3356C1.87632 10.3047 1.8377 10.2827 1.79537 10.2718L0.28826 9.86389C0.235807 9.84949 0.189556 9.81827 0.156598 9.77502C0.123641 9.73177 0.105802 9.67888 0.105832 9.62447C0.105862 9.57007 0.123753 9.51715 0.156758 9.47386C0.189763 9.43057 0.236053 9.39931 0.288522 9.38486L1.79289 8.97207C1.83522 8.96119 1.87388 8.93914 1.90479 8.90823C1.93571 8.87731 1.95775 8.83866 1.96863 8.79633L2.37822 7.28877C2.39267 7.2363 2.42395 7.19001 2.46724 7.15701C2.51053 7.12401 2.56343 7.10611 2.61784 7.10608C2.67224 7.10605 2.72514 7.12388 2.76839 7.15684C2.81164 7.1898 2.84286 7.23605 2.85725 7.28851L3.26839 8.79242C3.28118 8.83376 3.30386 8.87135 3.33444 8.90193C3.36503 8.93252 3.40261 8.95519 3.44394 8.96798L4.95105 9.37592C5.00351 9.39032 5.04976 9.42153 5.08272 9.46478C5.11568 9.50804 5.13352 9.56093 5.13349 9.61533C5.13346 9.66974 5.11557 9.72266 5.08256 9.76594C5.04956 9.80923 5.00326 9.8405 4.95079 9.85495L3.44643 10.2677C3.40507 10.2788 3.36735 10.3006 3.33706 10.3309C3.30677 10.3612 3.28499 10.3989 3.27388 10.4403Z" fill="#606060"/>
</svg>
