<svg width="160" height="40" viewBox="0 0 160 40" fill="none" xmlns="http://www.w3.org/2000/svg">
<rect width="40" height="40" rx="12" fill="#FFF0F5"/>
<circle cx="15.5" cy="15.5" r="1.5" fill="black"/>
<circle cx="24.5" cy="15.5" r="1.5" fill="black"/>
<path d="M10 21C10.6579 23.5773 13.1574 28 19.7366 28C26.3158 28 29.2544 23.5773 30 21" stroke="black" stroke-width="2" stroke-linecap="round"/>
<rect x="60" width="40" height="40" rx="12" fill="#FFF4D8"/>
<circle cx="75.5" cy="15.5" r="1.5" fill="black"/>
<circle cx="84.5" cy="15.5" r="1.5" fill="black"/>
<path d="M70 21C70.6579 23.5773 73.1574 28 79.7366 28C86.3158 28 89.2544 23.5773 90 21" stroke="black" stroke-width="2" stroke-linecap="round"/>
<rect x="120" width="40" height="40" rx="12" fill="#EAEDFA"/>
<circle cx="135.5" cy="15.5" r="1.5" fill="black"/>
<circle cx="144.5" cy="15.5" r="1.5" fill="black"/>
<path d="M130 21C130.658 23.5773 133.157 28 139.737 28C146.316 28 149.254 23.5773 150 21" stroke="black" stroke-width="2" stroke-linecap="round"/>
</svg>
