<svg width="36" height="26" viewBox="0 0 36 26" fill="none" xmlns="http://www.w3.org/2000/svg">
<path d="M8 6C8 4.89543 8.89543 4 10 4H26C27.1046 4 28 4.89543 28 6V12H8V6Z" fill="#15A66C"/>
<path d="M8 14H28V20C28 21.1046 27.1046 22 26 22H10C8.89543 22 8 21.1046 8 20V14Z" fill="#15A66C"/>
<path d="M6.12289 4.12677L6.9606 5.5895C6.99185 5.6406 7.00509 5.70069 6.99824 5.76021C6.99139 5.81972 6.96483 5.87523 6.92279 5.91787C6.88076 5.96051 6.82568 5.98783 6.76632 5.99548C6.70697 6.00312 6.64677 5.99065 6.59532 5.96006L5.13419 5.1263C5.09363 5.10228 5.04736 5.0896 5.00024 5.0896C4.95312 5.0896 4.90686 5.10228 4.86631 5.1263L3.40518 5.96494C3.35418 5.99398 3.29507 6.00545 3.23692 5.99759C3.17878 5.98974 3.12481 5.96299 3.08332 5.92146C3.04184 5.87993 3.01511 5.8259 3.00727 5.76769C2.99942 5.70948 3.01089 5.65031 3.03989 5.59925L3.87273 4.13652C3.89673 4.09592 3.9094 4.04961 3.9094 4.00244C3.9094 3.95526 3.89673 3.90896 3.87273 3.86836L3.03502 2.40563C3.00601 2.35457 2.99456 2.29539 3.00241 2.23718C3.01025 2.17897 3.03696 2.12495 3.07845 2.08342C3.11994 2.04189 3.1739 2.01514 3.23205 2.00728C3.29019 1.99943 3.3493 2.0109 3.4003 2.03994L4.86143 2.87369C4.90272 2.89547 4.94871 2.90685 4.99538 2.90685C5.04205 2.90685 5.08802 2.89547 5.12931 2.87369L6.59045 2.03507C6.64145 2.00603 6.70055 1.99455 6.7587 2.00241C6.81684 2.01026 6.87081 2.03701 6.9123 2.07854C6.95379 2.12007 6.98051 2.1741 6.98835 2.23231C6.9962 2.29052 6.98474 2.3497 6.95573 2.40075L6.12289 3.86348C6.0998 3.90351 6.08765 3.94891 6.08765 3.99512C6.08765 4.04134 6.0998 4.08675 6.12289 4.12677Z" fill="#ECD49D"/>
<path d="M2.88597 10.3431L2.52492 11.672C2.51345 11.7196 2.48639 11.7619 2.44805 11.7923C2.40971 11.8228 2.3623 11.8395 2.31339 11.8398C2.26447 11.8402 2.21688 11.8242 2.17817 11.7943C2.13947 11.7644 2.1119 11.7224 2.09985 11.675L1.73743 10.3494C1.72789 10.3121 1.70848 10.278 1.68126 10.2508C1.65404 10.2236 1.61999 10.2042 1.58269 10.1946L0.25419 9.83502C0.207953 9.82233 0.167184 9.79481 0.138132 9.75669C0.10908 9.71856 0.093356 9.67194 0.0933822 9.62398C0.0934085 9.57602 0.10918 9.52938 0.138273 9.49122C0.167366 9.45306 0.20817 9.4255 0.25442 9.41276L1.5805 9.0489C1.61781 9.03931 1.65189 9.01987 1.67914 8.99262C1.70639 8.96537 1.72582 8.9313 1.73541 8.89398L2.09646 7.56509C2.1092 7.51884 2.13677 7.47804 2.17493 7.44895C2.21308 7.41986 2.25972 7.40408 2.30767 7.40405C2.35563 7.40403 2.40226 7.41975 2.44039 7.4488C2.47851 7.47785 2.50603 7.51862 2.51871 7.56486L2.88113 8.89054C2.8924 8.92697 2.91239 8.96011 2.93935 8.98707C2.96631 9.01403 2.99944 9.03401 3.03588 9.04529L4.36437 9.40489C4.41061 9.41757 4.45138 9.44509 4.48043 9.48322C4.50948 9.52134 4.52521 9.56796 4.52518 9.61592C4.52516 9.66388 4.50939 9.71053 4.48029 9.74868C4.4512 9.78684 4.41039 9.81441 4.36414 9.82714L3.03806 10.191C3.00161 10.2008 2.96836 10.22 2.94166 10.2467C2.91496 10.2734 2.89576 10.3066 2.88597 10.3431Z" fill="#ECD49D"/>
</svg>
