<svg width="248" height="40" viewBox="0 0 248 40" fill="none" xmlns="http://www.w3.org/2000/svg">
<path d="M242.55 39.6117C242.55 39.6571 242.554 39.7036 242.564 39.75H4.67989C4.71856 39.6227 4.75955 39.467 4.79913 39.2897C4.90642 38.809 5.00674 38.1546 5.01983 37.4548C5.04536 36.0891 4.73781 34.4333 3.34675 33.6709C2.51167 32.892 2.15876 32.1624 2.08454 31.5143C2.0095 30.8591 2.21497 30.2491 2.56464 29.7093C2.91522 29.1681 3.40392 28.7089 3.86925 28.3678C4.33959 28.0231 4.76167 27.8164 4.96662 27.7613L5.65269 27.5767L5.0022 27.291C4.35526 27.0068 4.16389 26.7714 4.11654 26.6313C4.07471 26.5075 4.12061 26.3796 4.2425 26.2034C4.26953 26.1644 4.29743 26.1268 4.32667 26.0875L4.3327 26.0794C4.36273 26.039 4.39574 25.9944 4.42419 25.9511C4.45196 25.9089 4.48318 25.8563 4.50427 25.7985C4.52262 25.7482 4.53926 25.6776 4.52639 25.5983C4.59002 25.5777 4.64879 25.5543 4.70278 25.528C4.8435 25.4596 4.95966 25.3681 5.04096 25.2485C5.12307 25.1277 5.15912 24.9936 5.16299 24.8581C5.17035 24.6005 5.06131 24.3274 4.92849 24.0739C4.79239 23.8141 4.60862 23.5343 4.42752 23.2585L4.42739 23.2583L4.42569 23.2557C4.24207 22.9761 4.05916 22.6976 3.90982 22.4239C3.75936 22.1482 3.65239 21.8938 3.61213 21.6664C3.57278 21.4442 3.59896 21.2612 3.69894 21.1048C3.80187 20.9438 4.00492 20.7765 4.3876 20.6343L4.41169 20.6253L4.43345 20.6117C5.84716 19.724 6.67273 18.9874 7.01496 18.3757C7.18986 18.0631 7.25364 17.7554 7.16991 17.4695C7.08662 17.1851 6.87315 16.9763 6.60869 16.8265C6.08979 16.5327 5.27232 16.4067 4.3638 16.3941C3.44926 16.3814 2.40201 16.4835 1.38554 16.6779C1.01418 16.6942 0.754219 16.662 0.57857 16.6037C0.404763 16.546 0.327332 16.4682 0.290239 16.3963C0.250612 16.3195 0.235421 16.2076 0.266799 16.0453C0.29814 15.8831 0.372121 15.6918 0.483138 15.4775C0.705221 15.0488 1.05172 14.5726 1.40372 14.1228C1.54121 13.9471 1.68161 13.773 1.81421 13.6085C2.01211 13.3631 2.19262 13.1393 2.32004 12.964L2.50157 12.7143L2.21959 12.5886C1.08436 12.0827 0.749375 11.5916 0.718994 11.1851C0.686459 10.7499 0.981466 10.2665 1.46468 9.73482C1.69927 9.47669 1.96298 9.22287 2.22516 8.97207C2.23763 8.96014 2.25009 8.94822 2.26255 8.9363C2.50933 8.70031 2.7549 8.46546 2.95933 8.24134C3.17122 8.00904 3.35913 7.76709 3.45668 7.52552C3.54774 7.30002 3.56618 7.05437 3.43826 6.8265C3.58968 5.32853 4.44887 4.04743 5.13283 3.02759C5.23627 2.87336 5.33569 2.72511 5.42806 2.58299C5.60281 2.3141 5.75647 2.05959 5.85418 1.83022C5.94899 1.6077 6.01259 1.36085 5.94064 1.13C5.92792 1.08918 5.9117 1.05096 5.89231 1.01519H5.89346H5.91383H5.93406H5.95417H5.97415H5.994H6.01372H6.03331H6.05278H6.07212H6.09133H6.11042H6.12938H6.14822H6.16694H6.18552H6.20399H6.22233H6.24055H6.25865H6.27662H6.29448H6.31221H6.32982H6.34731H6.36468H6.38193H6.39907H6.41608H6.43298H6.44976H6.46642H6.48296H6.49939H6.5157H6.5319H6.54798H6.56395H6.5798H6.59554H6.61116H6.62668H6.64208H6.65736H6.67254H6.68761H6.70256H6.7174H6.73214H6.74676H6.76128H6.77568H6.78998H6.80417H6.81826H6.83223H6.8461H6.85987H6.87353H6.88708H6.90053H6.91387H6.92711H6.94025H6.95328H6.96621H6.97904H6.99177H7.00439H7.01692H7.02934H7.04167H7.05389H7.06602H7.07805H7.08997H7.1018H7.11354H7.12517H7.13671H7.14816H7.1595H7.17076H7.18191H7.19298H7.20395H7.21482H7.2256H7.23629H7.24689H7.2574H7.26781H7.27813H7.28837H7.29851H7.30856H7.31853H7.3284H7.33819H7.34788H7.35749H7.36702H7.37646H7.38581H7.39507H7.40425H7.41334H7.42235H7.43128H7.44012H7.44888H7.45756H7.46615H7.47466H7.48309H7.49144H7.49971H7.5079H7.51601H7.52403H7.53199H7.53986H7.54765H7.55537H7.563H7.57057H7.57805H7.58546H7.59279H7.60005H7.60724H7.61435H7.62138H7.62835H7.63524H7.64206H7.6488H7.65547H7.66208H7.66861H7.67507H7.68146H7.68778H7.69404H7.70022H7.70634H7.71239H7.71837H7.72428H7.73013H7.73591H7.74163H7.74728H7.75287H7.75839H7.76385H7.76924H7.77457H7.77984H7.78505H7.79019H7.79528H7.8003H7.80526H7.81017H7.81501H7.81979H7.82452H7.82919H7.83379H7.83835H7.84284H7.84728H7.85166H7.85599H7.86026H7.86447H7.86864H7.87274H7.8768H7.8808H7.88475H7.88864H7.89249H7.89628H7.90002H7.90371H7.90736H7.91095H7.91449H7.91798H7.92143H7.92483H7.92818H7.93148H7.93473H7.93794H7.94111H7.94423H7.9473H7.95033H7.95331H7.95626H7.95915H7.96201H7.96482H7.96759H7.97032H7.97301H7.97566H7.97827H7.98083H7.98336H7.98585H7.9883H7.99072H7.99309H7.99543H7.99773H8H8.00223H8.00442H8.00658H8.0087H8.01079H8.01285H8.01487H8.01686H8.01882H8.02075H8.02264H8.0245H8.02633H8.02814H8.02991H8.03165H8.03336H8.03505H8.03671H8.03833H8.03994H8.04151H8.04306H8.04458H8.04608H8.04755H8.049H8.05042H8.05182H8.05319H8.05455H8.05588H8.05718H8.05847H8.05973H8.06098H8.0622H8.06341H8.06459H8.06575H8.0669H8.06803H8.06914H8.07023H8.07131H8.07237H8.07341H8.07444H8.07545H8.07645H8.07743H8.0784H8.07935H8.08029H8.08122H8.08214H8.08305H8.08361H8.08365H8.08366H8.08373H8.08375H8.08386H8.08389H8.08394H8.08403H8.08407H8.08425H8.0843H8.0845H8.08457H8.0848H8.08483H8.0849H8.08514H8.08526H8.08552H8.08568H8.0857H8.08594H8.08615H8.0864H8.08656H8.08666H8.0869H8.08722H8.08741H8.08744H8.08784H8.08802H8.08826H8.0885H8.08863H8.08909H8.08921H8.08929H8.08992H8.08997H8.08998H8.09071H8.09074H8.09078H8.09148H8.09155H8.09165H8.09228H8.09235H8.09256H8.09312H8.09315H8.09353H8.09394H8.094H8.09455H8.09473H8.09491H8.09551H8.09563H8.09585H8.09628H8.09675H8.09683H8.09706H8.09782H8.09784H8.09793H8.09859H8.09889H8.09917H8.09935H8.09997H8.1001H8.10046H8.10086H8.10108H8.10161H8.1018H8.10223H8.10236H8.10311H8.1032H8.10341H8.10386H8.10461H8.10466H8.10536H8.10586H8.10611H8.10617H8.10686H8.10713H8.10762H8.10773H8.10837H8.10843H8.10913H8.10936H8.10977H8.10989H8.11066H8.11104H8.11113H8.11142H8.1122H8.11252H8.11278H8.11297H8.11375H8.11394H8.11454H8.11458H8.11533H8.11539H8.11613H8.11643H8.11686H8.11694H8.11775H8.11835H8.11837H8.11857H8.1194H8.1199H8.12023H8.12032H8.12108H8.12146H8.12193H8.12236H8.1228H8.12304H8.12367H8.12445H8.12456H8.12465H8.12545H8.12629H8.12636H8.1266H8.12728H8.12795H8.12821H8.12882H8.12916H8.12964H8.13011H8.13109H8.1311H8.13135H8.13207H8.13307H8.13309H8.13343H8.13409H8.13484H8.13512H8.13583H8.13616H8.13663H8.13722H8.1383H8.13843H8.1394H8.14026H8.14051H8.14082H8.14164H8.14211H8.14279H8.14341H8.14396H8.14398H8.14514H8.14587H8.14606H8.14635H8.14758H8.14779H8.14878H8.14883H8.14972H8.15009H8.15138H8.15156H8.15167H8.15269H8.15365H8.15403H8.15441H8.15538H8.15564H8.15676H8.15732H8.15765H8.15817H8.15959H8.15968H8.1603H8.16104H8.16173H8.16252H8.16334H8.1638H8.16402H8.16555H8.16588H8.16645H8.1671H8.16798H8.16868H8.16963H8.1701H8.17029H8.17192H8.17223H8.17287H8.17358H8.17438H8.17527H8.17618H8.17654H8.17699H8.17872H8.17873H8.17956H8.18051H8.18091H8.18232H8.18301H8.18312H8.18416H8.18534H8.18602H8.18653H8.18757H8.18792H8.18982H8.18985H8.19011H8.19182H8.19208H8.19377H8.19381H8.19435H8.19584H8.19663H8.1975H8.1979H8.19893H8.2H8.20123H8.20129H8.20213H8.20355H8.20429H8.20516H8.20588H8.20649H8.20821H8.20873H8.2091H8.21056H8.211H8.21291H8.21311H8.21331H8.21527H8.21565H8.21719H8.21764H8.21803H8.22002H8.22045H8.22135H8.2224H8.22291H8.22479H8.2254H8.22558H8.22719H8.22794H8.2296H8.22988H8.23051H8.23201H8.23313H8.23425H8.23442H8.23578H8.23684H8.23848H8.2387H8.23927H8.24122H8.24169H8.24323H8.24399H8.24413H8.24656H8.24681H8.24782H8.249H8.24968H8.25144H8.2525H8.25258H8.25388H8.25553H8.25633H8.25725H8.25852H8.25877H8.26122H8.26156H8.26207H8.26367H8.26464H8.26611H8.26697H8.26777H8.26856H8.27094H8.27101H8.27195H8.27345H8.27415H8.2759H8.27701H8.27742H8.27834H8.28073H8.28078H8.28214H8.28321H8.28409H8.28565H8.28736H8.28749H8.28807H8.2905H8.29095H8.29265H8.29292H8.29445H8.29534H8.29775H8.298H8.29802H8.30016H8.3016H8.30256H8.30346H8.30495H8.30525H8.30734H8.30895H8.30899H8.30972H8.31209H8.3127H8.31445H8.3146H8.3165H8.31681H8.31915H8.32029H8.32035H8.32149H8.32382H8.32426H8.32606H8.32614H8.32821H8.32845H8.33074H8.33191H8.33222H8.33303H8.33531H8.33629H8.33757H8.33784H8.33982H8.3404H8.34206H8.34386H8.34428H8.34457H8.34649H8.34869H8.3488H8.34996H8.35087H8.35304H8.35308H8.35519H8.35614H8.35733H8.35741H8.35945H8.36155H8.36181H8.3624H8.36364H8.36571H8.36625H8.36777H8.36875H8.3698H8.37076H8.37182H8.37382H8.37518H8.37532H8.3758H8.37776H8.37969H8.37994H8.38161H8.3817H8.38351H8.38461H8.38539H8.38725H8.3883H8.38908H8.38935H8.39089H8.39268H8.39414H8.39445H8.39498H8.39619H8.39791H8.399H8.3996H8.40127H8.40176H8.40291H8.40391H8.40453H8.40612H8.40769H8.40862H8.40888H8.40923H8.41074H8.41222H8.41368H8.41391H8.41511H8.41556H8.41651H8.41788H8.41901H8.41922H8.42053H8.42181H8.42259H8.42306H8.42416H8.42428H8.42546H8.42662H8.42774H8.42883H8.42938H8.42971H8.42989H8.43091H8.4319H8.43286H8.43377H8.43466H8.43692H8.44421H8.45159H8.45907H8.46663H8.47428H8.48202H8.48985H8.49777H8.50579H8.51389H8.52209H8.53038H8.53876H8.54724H8.55581H8.56448H8.57323H8.58209H8.59104H8.60008H8.60922H8.61846H8.62779H8.63723H8.64675H8.65638H8.66611H8.67593H8.68586H8.69588H8.706H8.71623H8.72655H8.73698H8.74751H8.75814H8.76887H8.77971H8.79065H8.80169H8.81284H8.82409H8.83544H8.84691H8.85847H8.87015H8.88193H8.89381H8.90581H8.91791H8.93012H8.94244H8.95487H8.9674H8.98005H8.99281H9.00567H9.01865H9.03174H9.04494H9.05826H9.07168H9.08522H9.09887H9.11264H9.12652H9.14051H9.15462H9.16885H9.18319H9.19764H9.21222H9.22691H9.24171H9.25664H9.27168H9.28684H9.30212H9.31752H9.33304H9.34868H9.36444H9.38032H9.39633H9.41245H9.4287H9.44507H9.46156H9.47817H9.49491H9.51177H9.52876H9.54587H9.56311H9.58047H9.59796H9.61558H9.63332H9.65119H9.66919H9.68732H9.70557H9.72396H9.74247H9.76111H9.77988H9.79879H9.81782H9.83699H9.85628H9.87571H9.89528H9.91497H9.9348H9.95476H9.97486H9.99509H10.0155H10.036H10.0566H10.0774H10.0983H10.1193H10.1405H10.1618H10.1833H10.2049H10.2266H10.2485H10.2705H10.2927H10.315H10.3374H10.36H10.3827H10.4056H10.4286H10.4517H10.475H10.4984H10.522H10.5457H10.5696H10.5936H10.6178H10.6421H10.6665H10.6911H10.7159H10.7408H10.7658H10.791H10.8164H10.8419H10.8675H10.8933H10.9192H10.9453H10.9716H10.9979H11.0245H11.0512H11.078H11.105H11.1322H11.1595H11.187H11.2146H11.2424H11.2703H11.2984H11.3267H11.3551H11.3836H11.4123H11.4412H11.4702H11.4994H11.5288H11.5583H11.588H11.6178H11.6478H11.678H11.7083H11.7388H11.7694H11.8002H11.8312H11.8623H11.8936H11.9251H11.9567H11.9885H12.0204H12.0526H12.0849H12.1173H12.1499H12.1827H12.2157H12.2488H12.2821C12.5878 1.01519 23.8483 0.974489 41.1751 0.911855C100.606 0.697023 231.404 0.224206 236.302 0.251097L236.302 0.251099C238.713 0.259986 240.29 0.270577 241.29 0.282689C241.297 0.303587 241.306 0.32169 241.316 0.337124C240.839 0.563936 240.525 0.846323 240.363 1.19597C240.113 1.73587 240.269 2.34118 240.532 2.92937C240.713 3.33424 240.966 3.77577 241.227 4.22956C241.347 4.43738 241.467 4.64778 241.583 4.8584C241.956 5.53383 242.293 6.23522 242.452 6.95703C242.442 7.32964 242.633 7.66189 242.896 7.94822C243.169 8.24586 243.549 8.52644 243.965 8.79222C244.383 9.05918 244.852 9.3204 245.31 9.57479L245.332 9.58694C245.785 9.83877 246.226 10.0837 246.61 10.3276C247.002 10.577 247.317 10.8142 247.518 11.0416C247.721 11.27 247.773 11.4466 247.741 11.5936C247.706 11.7527 247.553 11.9704 247.122 12.2302C246.698 12.4858 246.047 12.7565 245.101 13.0406L245.042 13.0582L244.999 13.1007C244.555 13.5315 244.122 13.9246 243.708 14.301C243.404 14.5773 243.11 14.8447 242.828 15.1114C242.182 15.7235 241.627 16.3119 241.314 16.9007C240.992 17.5057 240.918 18.1304 241.266 18.773C241.593 19.378 242.277 19.9661 243.375 20.5811C244.953 23.7332 244.492 26.3086 243.836 28.4675C243.725 28.835 243.605 29.1963 243.489 29.5485C243.265 30.2259 243.052 30.8697 242.927 31.4597C242.737 32.3624 242.733 33.2157 243.218 33.9872C243.921 35.9059 243.415 37.3549 242.986 38.3544C242.948 38.4432 242.909 38.5309 242.872 38.6159C242.805 38.7669 242.742 38.9096 242.692 39.0355C242.616 39.2293 242.549 39.4301 242.55 39.6117Z" fill="#F4FCFF" fill-opacity="0.7" stroke="#F4FCFF" stroke-width="0.5"/>
</svg>
