<svg width="327" height="168" viewBox="0 0 327 168" fill="none" xmlns="http://www.w3.org/2000/svg">
<rect width="327" height="168" rx="8" transform="matrix(1 0 0 -1 0 168)" fill="#F5F5F5"/>
<path d="M118.07 6H10.9509C8.87623 6 7.16281 7.58542 7.02889 9.65576C6.18375 22.7217 5.61363 48.3491 6.3164 67.6204C7.24252 93.0165 7.29754 133.111 6.48165 156.224C6.40126 158.501 8.21928 160.397 10.4981 160.397H26.5011C73.2701 159.013 151.054 160.397 174.192 161.782C193.623 162.945 273.587 159.081 315.354 159.004C317.776 159 319.699 156.868 319.65 154.447C319.517 147.808 319.915 136.989 319.915 125.779C319.915 107.778 317.945 87.699 319.915 62.7739C321.358 44.5032 321.259 23.4812 320.222 9.6144C320.068 7.55969 318.345 6 316.285 6H280.038H118.07Z" stroke="white"/>
</svg>
