<svg width="36" height="26" viewBox="0 0 36 26" fill="none" xmlns="http://www.w3.org/2000/svg">
<path d="M8 11.3125L18 3L28 11.75V24H8V11.3125Z" fill="#4482EB" stroke="#4482EB" stroke-linejoin="round"/>
<path d="M18.1133 21C18.1133 21 19.1699 18.3862 19.8061 17.7327C20.4423 17.0793 23 15.8857 23 15.8857C23 15.8857 20.3856 14.8292 19.732 14.1932C19.0784 13.5572 17.8867 11 17.8867 11C17.8867 11 16.8301 13.6138 16.1917 14.2782C15.5534 14.9425 13 16.1253 13 16.1253C13 16.1253 15.6144 17.1795 16.268 17.8177C16.9216 18.4559 18.1133 21 18.1133 21Z" fill="white"/>
<path d="M8.68433 3.19016L9.94091 5.38425C9.98777 5.4609 10.0076 5.55104 9.99736 5.64031C9.98708 5.72958 9.94724 5.81285 9.88419 5.87681C9.82114 5.94077 9.73852 5.98175 9.64949 5.99322C9.56046 6.00469 9.47016 5.98598 9.39298 5.94008L7.20128 4.68946C7.14045 4.65342 7.07105 4.63441 7.00036 4.63441C6.92968 4.63441 6.86029 4.65342 6.79946 4.68946L4.60776 5.94741C4.53126 5.99096 4.4426 6.00817 4.35538 5.99639C4.26817 5.9846 4.18722 5.94449 4.12499 5.88219C4.06275 5.81989 4.02267 5.73885 4.0109 5.65154C3.99913 5.56422 4.01633 5.47547 4.05984 5.39888L5.3091 3.20479C5.3451 3.14389 5.3641 3.07442 5.3641 3.00365C5.3641 2.93289 5.3451 2.86343 5.3091 2.80253L4.05253 0.608438C4.00901 0.531854 3.99184 0.443084 4.00361 0.35577C4.01538 0.268456 4.05544 0.187431 4.11767 0.125131C4.1799 0.0628318 4.26085 0.0227043 4.34807 0.0109226C4.43529 -0.000859027 4.52395 0.0163544 4.60045 0.0599139L6.79215 1.31054C6.85409 1.34321 6.92306 1.36028 6.99307 1.36028C7.06308 1.36028 7.13203 1.34321 7.19397 1.31054L9.38567 0.0526043C9.46217 0.00904474 9.55083 -0.00816866 9.63805 0.00361298C9.72527 0.0153946 9.80621 0.055511 9.86845 0.117811C9.93068 0.18011 9.97076 0.261147 9.98253 0.34846C9.9943 0.435774 9.9771 0.524544 9.93359 0.601128L8.68433 2.79522C8.64971 2.85526 8.63147 2.92336 8.63147 2.99268C8.63147 3.06201 8.64971 3.13012 8.68433 3.19016Z" fill="white"/>
<path d="M3.27413 10.4403L2.86453 11.9478C2.85152 12.0018 2.82082 12.0499 2.77733 12.0844C2.73384 12.1189 2.68005 12.1379 2.62456 12.1383C2.56907 12.1387 2.51507 12.1205 2.47117 12.0866C2.42726 12.0527 2.39598 12.0051 2.38231 11.9513L1.97117 10.4474C1.96034 10.4051 1.93832 10.3664 1.90744 10.3356C1.87656 10.3047 1.83794 10.2827 1.79562 10.2718L0.288504 9.86389C0.236051 9.84949 0.1898 9.81827 0.156843 9.77502C0.123885 9.73177 0.106046 9.67888 0.106076 9.62447C0.106106 9.57007 0.123997 9.51715 0.157002 9.47386C0.190007 9.43057 0.236297 9.39931 0.288766 9.38486L1.79313 8.97207C1.83547 8.96119 1.87412 8.93914 1.90503 8.90823C1.93595 8.87731 1.95799 8.83866 1.96887 8.79633L2.37847 7.28877C2.39291 7.2363 2.4242 7.19001 2.46748 7.15701C2.51077 7.12401 2.56367 7.10611 2.61808 7.10608C2.67249 7.10605 2.72538 7.12388 2.76863 7.15684C2.81189 7.1898 2.8431 7.23605 2.85749 7.28851L3.26864 8.79242C3.28142 8.83376 3.3041 8.87135 3.33469 8.90193C3.36527 8.93252 3.40286 8.95519 3.44419 8.96798L4.9513 9.37592C5.00375 9.39032 5.05001 9.42153 5.08296 9.46478C5.11592 9.50804 5.13376 9.56093 5.13373 9.61533C5.1337 9.66974 5.11581 9.72266 5.0828 9.76594C5.0498 9.80923 5.0035 9.8405 4.95104 9.85495L3.44667 10.2677C3.40531 10.2788 3.36759 10.3006 3.33731 10.3309C3.30702 10.3612 3.28523 10.3989 3.27413 10.4403Z" fill="white"/>
</svg>
