<svg width="24" height="24" viewBox="0 0 24 24" fill="none" xmlns="http://www.w3.org/2000/svg">
<path d="M0 1C0 0.447716 0.447715 0 1 0H23C23.5523 0 24 0.447715 24 1V21C24 21.5523 23.5523 22 23 22H1C0.447716 22 0 21.5523 0 21V1Z" fill="#E1E7F0"/>
<path d="M3 2.90929C3 2.39373 3.39196 1.96267 3.90519 1.91379L22.9052 0.104268C23.4923 0.0483548 24 0.510022 24 1.09976V21.0907C24 21.6063 23.608 22.0373 23.0948 22.0862L4.09481 23.8957C3.50773 23.9516 3 23.49 3 22.9002V2.90929Z" fill="white"/>
<path d="M3.25 2.90929C3.25 2.52262 3.54397 2.19932 3.92889 2.16267L22.9289 0.353141C23.3692 0.311207 23.75 0.657458 23.75 1.09976V21.0907C23.75 21.4774 23.456 21.8007 23.0711 21.8373L4.07111 23.6469C3.63079 23.6888 3.25 23.3425 3.25 22.9002V2.90929Z" stroke="#E1E7F0" stroke-opacity="0.8" stroke-width="0.5"/>
</svg>
