<svg width="327" height="242" viewBox="0 0 327 242" fill="none" xmlns="http://www.w3.org/2000/svg">
<rect width="327" height="242" rx="8" fill="#E4F3F4"/>
<path d="M116.849 5H8.07482C5.95713 5 4.22425 6.64196 4.12389 8.75727C3.22289 27.7477 2.5859 67.649 3.32142 97.4306C4.28559 136.47 4.32036 198.665 3.42596 232.869C3.37094 234.973 4.9488 236.755 7.04383 236.959L23.8265 238.596C71.3378 236.519 150.265 238.673 173.862 238.673C201.986 238.673 274.748 236.344 316.504 236.493C318.865 236.501 320.753 234.486 320.741 232.126C320.694 222.128 321.897 203.026 321.897 184.669C321.897 157.666 319.897 127.548 321.897 90.1608C323.404 62.004 323.256 29.4908 322.121 8.7364C322.006 6.63159 320.26 5 318.152 5H281.388H116.849Z" stroke="#BCDEE0"/>
</svg>
