<svg width="36" height="26" viewBox="0 0 36 26" fill="none" xmlns="http://www.w3.org/2000/svg">
<path fill-rule="evenodd" clip-rule="evenodd" d="M25.7104 14C25.7104 14.3438 25.689 14.6667 25.6462 14.9792L27.7987 16.625C28.0021 16.7708 28.0557 17.0312 27.9272 17.2604L25.8711 20.7188C25.7426 20.9479 25.4748 21.0312 25.2392 20.9479L22.6798 19.9479C22.1551 20.3437 21.5768 20.6771 20.945 20.9271L20.5594 23.5729C20.5273 23.8229 20.3131 24 20.0561 24H15.9439C15.6869 24 15.4834 23.8229 15.4299 23.5729L15.0443 20.9271C14.4125 20.6771 13.8449 20.3437 13.3095 19.9479L10.7501 20.9479C10.5145 21.0208 10.2467 20.9479 10.1182 20.7188L8.06211 17.2604C7.94431 17.0521 7.99786 16.7708 8.19062 16.625L10.3645 14.9792C10.311 14.6667 10.2896 14.3229 10.2896 14C10.2896 13.6771 10.3324 13.3333 10.3859 13.0208L8.21204 11.375C7.99786 11.2292 7.95502 10.9583 8.08353 10.7396L10.1289 7.28125C10.2574 7.05208 10.5252 6.96875 10.7608 7.05208L13.3202 8.05208C13.8449 7.66667 14.4232 7.32292 15.055 7.07292L15.4406 4.42708C15.4834 4.17708 15.6869 4 15.9439 4H20.0561C20.3131 4 20.5273 4.17708 20.5701 4.42708L20.9557 7.07292C21.5875 7.32292 22.1551 7.65625 22.6905 8.05208L25.2499 7.05208C25.4855 6.97917 25.7533 7.05208 25.8818 7.28125L27.9379 10.7396C28.0557 10.9479 28.0021 11.2292 27.8094 11.375L25.6355 13.0208C25.689 13.3333 25.7104 13.6667 25.7104 14Z" fill="#E6DDCD"/>
<path d="M18.1133 19C18.1133 19 19.1699 16.3862 19.8061 15.7327C20.4423 15.0793 23 13.8857 23 13.8857C23 13.8857 20.3856 12.8292 19.732 12.1932C19.0784 11.5572 17.8867 9 17.8867 9C17.8867 9 16.8301 11.6138 16.1917 12.2782C15.5534 12.9425 13 14.1253 13 14.1253C13 14.1253 15.6144 15.1795 16.268 15.8177C16.9216 16.4559 18.1133 19 18.1133 19Z" fill="white"/>
</svg>
