<svg width="18" height="18" viewBox="0 0 18 18" fill="none" xmlns="http://www.w3.org/2000/svg">
<path d="M12.13 13L10.926 9.906H6.964L5.774 13H4.5L8.406 2.962H9.54L13.432 13H12.13ZM9.428 5.762C9.4 5.68733 9.35333 5.552 9.288 5.356C9.22267 5.16 9.15733 4.95933 9.092 4.754C9.036 4.53933 8.98933 4.376 8.952 4.264C8.90533 4.45067 8.854 4.642 8.798 4.838C8.75133 5.02467 8.7 5.19733 8.644 5.356C8.59733 5.51467 8.55533 5.65 8.518 5.762L7.384 8.786H10.548L9.428 5.762Z" fill="white"/>
<rect x="3" y="16" width="12" height="1" fill="white"/>
</svg>
