<svg width="36" height="26" viewBox="0 0 36 26" fill="none" xmlns="http://www.w3.org/2000/svg">
<path fill-rule="evenodd" clip-rule="evenodd" d="M17.1836 4C12.7756 4 12.1226 4.29418 12.1226 5.4706C12.1226 6.05883 12.6122 6.64698 13.9183 6.64698V7.97052C12.6122 8.1666 10 9.38228 10 12.6764V20.9118C10 22.8235 11.4367 24 13.9183 24H17.1836H18.8164H22.0817C24.5633 24 26 22.8235 26 20.9118V12.6764C26 9.38228 23.3878 8.1666 22.0817 7.97052V6.64698C23.3878 6.64698 23.8774 6.05883 23.8774 5.4706C23.8774 4.29418 23.2244 4 18.8164 4C18.8163 4 18.8163 4 18.8163 4H17.1837" fill="#4482EB"/>
<path d="M17.1836 4V3.5H17.1836L17.1836 4ZM13.9183 6.64698H14.4183V6.14698H13.9183V6.64698ZM13.9183 7.97052L13.9926 8.46498L14.4183 8.40106V7.97052H13.9183ZM22.0817 7.97052H21.5817V8.40106L22.0074 8.46498L22.0817 7.97052ZM22.0817 6.64698V6.14698H21.5817V6.64698H22.0817ZM18.8164 4V3.5V4ZM12.6226 5.4706C12.6226 5.21257 12.6609 5.09403 12.7081 5.02398C12.7509 4.96047 12.8511 4.86346 13.1476 4.77188C13.7756 4.57794 14.959 4.5 17.1836 4.5L17.1836 3.5C15.0002 3.5 13.6531 3.56915 12.8525 3.81641C12.4348 3.94543 12.0963 4.14254 11.8789 4.46506C11.6659 4.78103 11.6226 5.14042 11.6226 5.4706H12.6226ZM13.9183 6.14698C13.3336 6.14698 13.006 6.01465 12.8362 5.88361C12.678 5.76146 12.6226 5.61602 12.6226 5.4706H11.6226C11.6226 5.91341 11.812 6.35616 12.2251 6.67514C12.6267 6.98524 13.197 7.14698 13.9183 7.14698V6.14698ZM14.4183 7.97052V6.64698H13.4183V7.97052H14.4183ZM10.5 12.6764C10.5 11.1789 11.087 10.1833 11.8052 9.5321C12.5387 8.86703 13.4231 8.55047 13.9926 8.46498L13.8441 7.47606C13.1075 7.58665 12.0327 7.97597 11.1335 8.7913C10.2191 9.62047 9.5 10.8798 9.5 12.6764H10.5ZM10.5 20.9118V12.6764H9.5V20.9118H10.5ZM13.9183 23.5C12.7495 23.5 11.8933 23.2223 11.3401 22.7817C10.8011 22.3525 10.5 21.7305 10.5 20.9118H9.5C9.5 22.0048 9.91722 22.9269 10.7171 23.5639C11.5026 24.1895 12.6056 24.5 13.9183 24.5V23.5ZM17.1836 23.5H13.9183V24.5H17.1836V23.5ZM17.1836 24.5H18.8164V23.5H17.1836V24.5ZM18.8164 24.5H22.0817V23.5H18.8164V24.5ZM22.0817 24.5C23.3944 24.5 24.4974 24.1895 25.2829 23.5639C26.0828 22.9269 26.5 22.0048 26.5 20.9118H25.5C25.5 21.7305 25.1989 22.3525 24.6599 22.7817C24.1067 23.2223 23.2505 23.5 22.0817 23.5V24.5ZM26.5 20.9118V12.6764H25.5V20.9118H26.5ZM26.5 12.6764C26.5 10.8798 25.7809 9.62047 24.8665 8.7913C23.9673 7.97597 22.8925 7.58665 22.1559 7.47606L22.0074 8.46498C22.5769 8.55047 23.4613 8.86703 24.1948 9.5321C24.913 10.1833 25.5 11.1789 25.5 12.6764H26.5ZM22.5817 7.97052V6.64698H21.5817V7.97052H22.5817ZM22.0817 7.14698C22.803 7.14698 23.3733 6.98524 23.7749 6.67514C24.188 6.35616 24.3774 5.91341 24.3774 5.4706H23.3774C23.3774 5.61602 23.322 5.76146 23.1638 5.88361C22.994 6.01465 22.6664 6.14698 22.0817 6.14698V7.14698ZM24.3774 5.4706C24.3774 5.14042 24.3341 4.78103 24.1211 4.46506C23.9037 4.14254 23.5652 3.94543 23.1475 3.81641C22.3469 3.56915 20.9998 3.5 18.8164 3.5V4.5C21.041 4.5 22.2244 4.57794 22.8524 4.77188C23.1489 4.86346 23.2491 4.96047 23.2919 5.02398C23.3391 5.09403 23.3774 5.21257 23.3774 5.4706H24.3774ZM18.8164 3.5C18.8164 3.5 18.8164 3.5 18.8164 3.5H18.8164C18.8164 3.5 18.8164 3.5 18.8164 3.5C18.8164 3.5 18.8164 3.5 18.8164 3.5H18.8164C18.8164 3.5 18.8164 3.5 18.8164 3.5C18.8164 3.5 18.8164 3.5 18.8164 3.5C18.8164 3.5 18.8164 3.5 18.8164 3.5H18.8164C18.8164 3.5 18.8164 3.5 18.8164 3.5C18.8164 3.5 18.8164 3.5 18.8164 3.5H18.8163H18.8163C18.8163 3.5 18.8163 3.5 18.8163 3.5C18.8163 3.5 18.8163 3.5 18.8163 3.5H18.8163H18.8163C18.8163 3.5 18.8163 3.5 18.8163 3.5C18.8163 3.5 18.8163 3.5 18.8163 3.5H18.8163H18.8163C18.8163 3.5 18.8163 3.5 18.8163 3.5C18.8163 3.5 18.8163 3.5 18.8163 3.5C18.8163 3.5 18.8163 3.5 18.8163 3.5H18.8163C18.8163 3.5 18.8163 3.5 18.8163 3.5C18.8163 3.5 18.8163 3.5 18.8163 3.5C18.8163 3.5 18.8163 3.5 18.8163 3.5H18.8163H18.8163C18.8163 3.5 18.8163 3.5 18.8163 3.5C18.8163 3.5 18.8163 3.5 18.8163 3.5C18.8163 3.5 18.8163 3.5 18.8163 3.5H18.8163H18.8163C18.8163 3.5 18.8163 3.5 18.8163 3.5C18.8163 3.5 18.8163 3.5 18.8163 3.5C18.8163 3.5 18.8163 3.5 18.8163 3.5H18.8163C18.8163 3.5 18.8163 3.5 18.8163 3.5C18.8163 3.5 18.8163 3.5 18.8163 3.5C18.8163 3.5 18.8163 3.5 18.8163 3.5C18.8163 3.5 18.8163 3.5 18.8163 3.5H18.8163C18.8163 3.5 18.8163 3.5 18.8163 3.5C18.8163 3.5 18.8163 3.5 18.8163 3.5C18.8163 3.5 18.8163 3.5 18.8163 3.5H18.8163H18.8163C18.8163 3.5 18.8163 3.5 18.8163 3.5C18.8163 3.5 18.8163 3.5 18.8163 3.5C18.8163 3.5 18.8163 3.5 18.8163 3.5H18.8163H18.8163C18.8163 3.5 18.8163 3.5 18.8163 3.5C18.8163 3.5 18.8163 3.5 18.8163 3.5C18.8163 3.5 18.8163 3.5 18.8163 3.5H18.8163C18.8163 3.5 18.8163 3.5 18.8163 3.5C18.8163 3.5 18.8163 3.5 18.8163 3.5C18.8163 3.5 18.8163 3.5 18.8163 3.5H18.8163H18.8163C18.8163 3.5 18.8163 3.5 18.8163 3.5C18.8163 3.5 18.8163 3.5 18.8163 3.5H18.8163H18.8163C18.8163 3.5 18.8163 3.5 18.8163 3.5C18.8163 3.5 18.8163 3.5 18.8163 3.5H18.8163H18.8163C18.8163 3.5 18.8163 3.5 18.8163 3.5C18.8163 3.5 18.8163 3.5 18.8163 3.5H18.8163C18.8163 3.5 18.8163 3.5 18.8163 3.5C18.8163 3.5 18.8163 3.5 18.8163 3.5C18.8163 3.5 18.8163 3.5 18.8163 3.5H18.8163C18.8163 3.5 18.8163 3.5 18.8163 3.5C18.8163 3.5 18.8163 3.5 18.8163 3.5H18.8163C18.8163 3.5 18.8163 3.5 18.8163 3.5V4.5C18.8163 4.5 18.8163 4.5 18.8163 4.5H18.8163C18.8163 4.5 18.8163 4.5 18.8163 4.5C18.8163 4.5 18.8163 4.5 18.8163 4.5H18.8163C18.8163 4.5 18.8163 4.5 18.8163 4.5C18.8163 4.5 18.8163 4.5 18.8163 4.5C18.8163 4.5 18.8163 4.5 18.8163 4.5H18.8163C18.8163 4.5 18.8163 4.5 18.8163 4.5C18.8163 4.5 18.8163 4.5 18.8163 4.5H18.8163H18.8163C18.8163 4.5 18.8163 4.5 18.8163 4.5C18.8163 4.5 18.8163 4.5 18.8163 4.5H18.8163H18.8163C18.8163 4.5 18.8163 4.5 18.8163 4.5C18.8163 4.5 18.8163 4.5 18.8163 4.5H18.8163H18.8163C18.8163 4.5 18.8163 4.5 18.8163 4.5C18.8163 4.5 18.8163 4.5 18.8163 4.5C18.8163 4.5 18.8163 4.5 18.8163 4.5H18.8163C18.8163 4.5 18.8163 4.5 18.8163 4.5C18.8163 4.5 18.8163 4.5 18.8163 4.5C18.8163 4.5 18.8163 4.5 18.8163 4.5H18.8163H18.8163C18.8163 4.5 18.8163 4.5 18.8163 4.5C18.8163 4.5 18.8163 4.5 18.8163 4.5C18.8163 4.5 18.8163 4.5 18.8163 4.5H18.8163H18.8163C18.8163 4.5 18.8163 4.5 18.8163 4.5C18.8163 4.5 18.8163 4.5 18.8163 4.5C18.8163 4.5 18.8163 4.5 18.8163 4.5H18.8163C18.8163 4.5 18.8163 4.5 18.8163 4.5C18.8163 4.5 18.8163 4.5 18.8163 4.5C18.8163 4.5 18.8163 4.5 18.8163 4.5C18.8163 4.5 18.8163 4.5 18.8163 4.5H18.8163C18.8163 4.5 18.8163 4.5 18.8163 4.5C18.8163 4.5 18.8163 4.5 18.8163 4.5C18.8163 4.5 18.8163 4.5 18.8163 4.5H18.8163H18.8163C18.8163 4.5 18.8163 4.5 18.8163 4.5C18.8163 4.5 18.8163 4.5 18.8163 4.5C18.8163 4.5 18.8163 4.5 18.8163 4.5H18.8163H18.8163C18.8163 4.5 18.8163 4.5 18.8163 4.5C18.8163 4.5 18.8163 4.5 18.8163 4.5C18.8163 4.5 18.8163 4.5 18.8163 4.5H18.8163C18.8163 4.5 18.8163 4.5 18.8163 4.5C18.8163 4.5 18.8163 4.5 18.8163 4.5C18.8163 4.5 18.8163 4.5 18.8163 4.5H18.8163H18.8163C18.8163 4.5 18.8163 4.5 18.8163 4.5C18.8163 4.5 18.8163 4.5 18.8163 4.5H18.8163H18.8163C18.8163 4.5 18.8163 4.5 18.8163 4.5C18.8163 4.5 18.8163 4.5 18.8163 4.5H18.8163H18.8164C18.8164 4.5 18.8164 4.5 18.8164 4.5C18.8164 4.5 18.8164 4.5 18.8164 4.5H18.8164C18.8164 4.5 18.8164 4.5 18.8164 4.5C18.8164 4.5 18.8164 4.5 18.8164 4.5C18.8164 4.5 18.8164 4.5 18.8164 4.5H18.8164C18.8164 4.5 18.8164 4.5 18.8164 4.5C18.8164 4.5 18.8164 4.5 18.8164 4.5H18.8164C18.8164 4.5 18.8164 4.5 18.8164 4.5V3.5ZM18.8163 3.5H17.1837V4.5H18.8163V3.5ZM17.1837 3.5H17.1836V4.5H17.1837V3.5Z" fill="#4482EB"/>
<path d="M18.0906 20C18.0906 20 18.9359 17.909 19.4449 17.3862C19.9538 16.8634 22 15.9085 22 15.9085C22 15.9085 19.9085 15.0634 19.3856 14.5546C18.8627 14.0457 17.9094 12 17.9094 12C17.9094 12 17.0641 14.0911 16.5534 14.6225C16.0427 15.154 14 16.1002 14 16.1002C14 16.1002 16.0915 16.9436 16.6144 17.4542C17.1373 17.9647 18.0906 20 18.0906 20Z" fill="white"/>
<path d="M8.68433 3.19016L9.94091 5.38425C9.98777 5.4609 10.0076 5.55104 9.99736 5.64031C9.98708 5.72958 9.94724 5.81285 9.88419 5.87681C9.82114 5.94077 9.73852 5.98175 9.64949 5.99322C9.56046 6.00469 9.47016 5.98598 9.39298 5.94008L7.20128 4.68946C7.14045 4.65342 7.07105 4.63441 7.00036 4.63441C6.92968 4.63441 6.86029 4.65342 6.79946 4.68946L4.60776 5.94741C4.53126 5.99096 4.4426 6.00817 4.35538 5.99639C4.26817 5.9846 4.18722 5.94449 4.12499 5.88219C4.06275 5.81989 4.02267 5.73885 4.0109 5.65154C3.99913 5.56422 4.01633 5.47547 4.05984 5.39888L5.3091 3.20479C5.3451 3.14389 5.3641 3.07442 5.3641 3.00365C5.3641 2.93289 5.3451 2.86343 5.3091 2.80253L4.05253 0.608438C4.00901 0.531854 3.99184 0.443084 4.00361 0.35577C4.01538 0.268456 4.05544 0.187431 4.11767 0.125131C4.1799 0.0628318 4.26085 0.0227043 4.34807 0.0109226C4.43529 -0.000859027 4.52395 0.0163544 4.60045 0.0599139L6.79215 1.31054C6.85409 1.34321 6.92306 1.36028 6.99307 1.36028C7.06308 1.36028 7.13203 1.34321 7.19397 1.31054L9.38567 0.0526043C9.46217 0.00904474 9.55083 -0.00816866 9.63805 0.00361298C9.72527 0.0153946 9.80621 0.055511 9.86845 0.117811C9.93068 0.18011 9.97076 0.261147 9.98253 0.34846C9.9943 0.435774 9.9771 0.524544 9.93359 0.601128L8.68433 2.79522C8.64971 2.85526 8.63147 2.92336 8.63147 2.99268C8.63147 3.06201 8.64971 3.13012 8.68433 3.19016Z" fill="white"/>
<path d="M3.27413 10.4403L2.86453 11.9478C2.85152 12.0018 2.82082 12.0499 2.77733 12.0844C2.73384 12.1189 2.68005 12.1379 2.62456 12.1383C2.56907 12.1387 2.51507 12.1205 2.47117 12.0866C2.42726 12.0527 2.39598 12.0051 2.38231 11.9513L1.97117 10.4474C1.96034 10.4051 1.93832 10.3664 1.90744 10.3356C1.87656 10.3047 1.83794 10.2827 1.79562 10.2718L0.288504 9.86389C0.236051 9.84949 0.1898 9.81827 0.156843 9.77502C0.123885 9.73177 0.106046 9.67888 0.106076 9.62447C0.106106 9.57007 0.123997 9.51715 0.157002 9.47386C0.190007 9.43057 0.236297 9.39931 0.288766 9.38486L1.79313 8.97207C1.83547 8.96119 1.87412 8.93914 1.90503 8.90823C1.93595 8.87731 1.95799 8.83866 1.96887 8.79633L2.37847 7.28877C2.39291 7.2363 2.4242 7.19001 2.46748 7.15701C2.51077 7.12401 2.56367 7.10611 2.61808 7.10608C2.67249 7.10605 2.72538 7.12388 2.76863 7.15684C2.81189 7.1898 2.8431 7.23605 2.85749 7.28851L3.26864 8.79242C3.28142 8.83376 3.3041 8.87135 3.33469 8.90193C3.36527 8.93252 3.40286 8.95519 3.44419 8.96798L4.9513 9.37592C5.00375 9.39032 5.05001 9.42153 5.08296 9.46478C5.11592 9.50804 5.13376 9.56093 5.13373 9.61533C5.1337 9.66974 5.11581 9.72266 5.0828 9.76594C5.0498 9.80923 5.0035 9.8405 4.95104 9.85495L3.44667 10.2677C3.40531 10.2788 3.36759 10.3006 3.33731 10.3309C3.30702 10.3612 3.28523 10.3989 3.27413 10.4403Z" fill="white"/>
</svg>
